<svg width="14" height="14" fill="none" xmlns="http://www.w3.org/2000/svg"><g clip-path="url(#clip0_156_344)"><path d="M13.66 6.175l-.955-.955c-.226-.226-.412-.674-.412-.995v-1.35a1.17 1.17 0 00-1.167-1.168h-1.35c-.321 0-.77-.186-.996-.412L7.825.34a1.17 1.17 0 00-1.65 0l-.955.956c-.226.226-.675.412-.995.412h-1.35a1.17 1.17 0 00-1.167 1.167v1.35c0 .32-.186.769-.413.995l-.954.955a1.17 1.17 0 000 1.65l.954.955c.227.227.413.676.413.996v1.35a1.17 1.17 0 001.166 1.167h1.35c.321 0 .77.186.996.412l.955.955a1.17 1.17 0 001.65 0l.955-.955c.226-.226.675-.412.995-.412h1.351a1.17 1.17 0 001.167-1.167v-1.35c0-.321.186-.77.412-.996l.955-.954a1.172 1.172 0 000-1.651zm-7.586 3.45L3.5 7.051l.825-.825 1.75 1.75 3.6-3.6.825.824-4.426 4.425z" fill="#E79315"/></g><defs><clipPath id="clip0_156_344"><path fill="#fff" d="M0 0h14v14H0z"/></clipPath></defs></svg>