<svg width="39" height="33" fill="none" xmlns="http://www.w3.org/2000/svg"><path d="M35.462 18.503l-.988-3.95a.597.597 0 00.473-.583v-.637a2.51 2.51 0 00-2.508-2.508h-4.497V9.512c0-.68-.554-1.234-1.234-1.234h-8.363l5.082-2.033a.597.597 0 10-.444-1.109l-4.16 1.665c1.267-.814 2.522-1.71 3-2.335a2.784 2.784 0 00-.525-3.897 2.784 2.784 0 00-3.897.524c-.68.891-1.576 3.394-2.156 5.158-.58-1.763-1.477-4.267-2.156-5.158A2.784 2.784 0 009.192.57a2.784 2.784 0 00-.525 3.897c.477.626 1.732 1.521 3 2.335L7.506 5.136a.597.597 0 10-.444 1.11l5.082 2.032H3.781c-.68 0-1.234.554-1.234 1.234v10.826a.597.597 0 001.194 0V9.512a.04.04 0 01.04-.04h22.927a.04.04 0 01.04.04v10.827a.597.597 0 101.194 0v-.677h7.046c.867 0 1.603.57 1.855 1.353h-1.856a.597.597 0 00-.597.597v1.274c0 1.031.839 1.87 1.87 1.87h.677v2.628h-1.561a3.787 3.787 0 00-3.573-2.548 3.787 3.787 0 00-3.574 2.548h-.287v-4.498a.597.597 0 00-1.195 0v4.498H14.36a3.787 3.787 0 00-3.573-2.548 3.787 3.787 0 00-3.574 2.548H3.781a.04.04 0 01-.04-.04V26.03H6.33a.597.597 0 000-1.194H.597a.597.597 0 000 1.194h1.95v1.314c0 .68.554 1.234 1.234 1.234h3.225v.04a3.786 3.786 0 003.78 3.78 3.786 3.786 0 003.782-3.78l-.001-.04h13.455v.04a3.786 3.786 0 003.78 3.78 3.786 3.786 0 003.782-3.78l-.001-.04h1.951c.33 0 .597-.268.597-.598v-6.368a3.15 3.15 0 00-2.669-3.108zM12.877 6.15c-2.355-1.464-3.054-2.137-3.26-2.408a1.588 1.588 0 011.259-2.548c.478 0 .951.215 1.263.624.578.757 1.482 3.306 2.08 5.142a65.838 65.838 0 01-1.342-.81zm3.394.81c.597-1.836 1.502-4.385 2.079-5.143a1.588 1.588 0 012.223-.299c.696.53.83 1.528.3 2.224-.207.27-.905.944-3.26 2.408a65.6 65.6 0 01-1.342.81zm11.67 5.06h4.499c.724 0 1.313.589 1.313 1.313v.04h-5.811V12.02zm0 6.448v-3.901h5.306l.975 3.9h-6.28zM10.788 31.205A2.59 2.59 0 018.2 28.617a2.59 2.59 0 012.588-2.587 2.59 2.59 0 012.587 2.587 2.59 2.59 0 01-2.587 2.588zm21.016 0a2.59 2.59 0 01-2.588-2.588 2.59 2.59 0 012.588-2.587 2.59 2.59 0 012.587 2.587 2.59 2.59 0 01-2.587 2.588zm5.134-7.643h-.676a.678.678 0 01-.677-.676v-.677h1.353v1.353z" fill="#5F5F5F"/><path d="M10.787 27.384c-.68 0-1.234.553-1.234 1.233s.553 1.234 1.234 1.234a1.234 1.234 0 000-2.467zm21.016 0c-.68 0-1.234.553-1.234 1.233s.553 1.234 1.234 1.234c.68 0 1.234-.553 1.234-1.234 0-.68-.554-1.233-1.234-1.233zm-7.005-2.548h-8.916a.597.597 0 000 1.194h8.916a.597.597 0 000-1.194zM9.513 22.289H1.871a.597.597 0 000 1.194h7.642a.597.597 0 000-1.194zm0-8.916H6.966a.597.597 0 00-.597.597v5.095a.597.597 0 001.194 0v-1.95h1.313a.597.597 0 000-1.195H7.563v-1.353h1.95a.597.597 0 000-1.194zm4.698 4.021a2.188 2.188 0 00-1.195-4.021h-1.592a.597.597 0 00-.598.597v5.095a.597.597 0 001.195 0V17.75h.993l1.097 1.645a.597.597 0 10.993-.663l-.893-1.339zm-1.195-.837h-.995v-1.99h.995a.996.996 0 010 1.99zm6.05 1.911h-1.95v-1.356l.039.002h1.274a.597.597 0 000-1.194h-1.274l-.04.002v-1.355h1.95a.597.597 0 000-1.194h-2.547a.597.597 0 00-.597.597v5.095c0 .33.267.597.597.597h2.548a.597.597 0 000-1.194zm4.457 0h-1.95v-1.354h.677a.597.597 0 000-1.194h-.677v-1.353h1.95a.597.597 0 000-1.194h-2.547a.597.597 0 00-.597.597v5.095c0 .33.267.597.597.597h2.547a.597.597 0 000-1.194z" fill="#5F5F5F"/></svg>