<svg width="33" height="32" fill="none" xmlns="http://www.w3.org/2000/svg"><g clip-path="url(#clip0_723_1965)" fill="#414141"><path d="M17.244 8.354c0-.276.226-.496.503-.496.276 0 .495.22.495.496v7.625a1.495 1.495 0 01-1.495 1.502H3.305c-.411 0-.787-.17-1.056-.44a1.501 1.501 0 01-.447-1.062V8.418c0-.276.227-.503.504-.503.276 0 .503.227.503.503v7.56a.497.497 0 00.496.504h1.339v-5.074c0-.73.298-1.389.78-1.864a2.606 2.606 0 011.863-.779c.73 0 1.39.297 1.864.78.482.474.78 1.133.78 1.863v5.074h6.816a.477.477 0 00.348-.15.504.504 0 00.149-.354V8.355zM3.63 0h12.79c.425 0 .823.127 1.162.361.333.227.596.56.766.964l1.503 3.656c.056.135.084.277.099.411.006.142 0 .276-.036.418a1.884 1.884 0 01-.645 1.056 1.806 1.806 0 01-1.148.425c-.517 0-.985-.22-1.318-.574l-.035-.035-.036.035a1.8 1.8 0 01-1.31.574c-.518 0-.979-.22-1.319-.574l-.035-.035-.029.035c-.34.355-.8.574-1.317.574-.518 0-.979-.22-1.319-.574l-.028-.035-.035.035a1.801 1.801 0 01-1.318.574 1.8 1.8 0 01-1.312-.574l-.035-.035-.036.035a1.8 1.8 0 01-1.31.574c-.518 0-.986-.22-1.319-.574l-.035-.035-.035.035a1.8 1.8 0 01-1.311.574c-.518 0-.978-.22-1.318-.574l-.036-.035-.028.035c-.34.355-.801.574-1.318.574a1.79 1.79 0 01-1.148-.425A1.933 1.933 0 01.13 5.81C.1 5.67.087 5.534.1 5.392a1.24 1.24 0 01.1-.41l1.502-3.657c.163-.404.433-.737.766-.964A2.015 2.015 0 013.63 0zm12.79.999H3.632c-.227 0-.425.064-.595.184a1.14 1.14 0 00-.412.524l-1.502 3.65a.852.852 0 00-.028.113c0 .043 0 .078.014.12a.923.923 0 00.305.511c.141.12.326.184.517.184a.836.836 0 00.794-.588.49.49 0 01.467-.326h.177a.49.49 0 01.468.326.836.836 0 00.794.588.82.82 0 00.588-.255.943.943 0 00.205-.333.49.49 0 01.468-.326h.17a.49.49 0 01.474.326c.043.127.114.24.199.333a.823.823 0 00.595.255c.227 0 .44-.099.588-.255a.928.928 0 00.198-.333.506.506 0 01.475-.326h.17c.213 0 .397.127.475.326.043.127.106.24.199.333a.82.82 0 00.588.255.835.835 0 00.793-.588.493.493 0 01.475-.326h.17a.49.49 0 01.468.326c.05.127.113.24.198.333a.849.849 0 00.596.255.835.835 0 00.793-.588.49.49 0 01.468-.326h.177a.49.49 0 01.467.326.836.836 0 00.794.588c.227 0 .44-.099.588-.255a.94.94 0 00.206-.333.49.49 0 01.468-.326h.17a.49.49 0 01.474.326c.043.127.113.24.198.333a.823.823 0 00.596.255.777.777 0 00.51-.184.93.93 0 00.312-.51c.007-.043.014-.078.007-.12a.243.243 0 00-.028-.114l-1.495-3.65a1.138 1.138 0 00-.41-.524A1.02 1.02 0 0016.422 1zm-4.159 12.01h3.054v-2.26h-3.054v2.26zm3.557 1h-4.053a.505.505 0 01-.503-.503v-3.26a.5.5 0 01.503-.496h4.053a.5.5 0 01.504.496v3.26a.505.505 0 01-.504.503zM5.643 16.482h3.288v-5.074c0-.453-.191-.857-.482-1.155a1.645 1.645 0 00-1.162-.489 1.63 1.63 0 00-1.155.489 1.628 1.628 0 00-.489 1.155v5.074zm20.5 13.385a.493.493 0 01-.495-.496.5.5 0 01.495-.503h1.921a.5.5 0 01.496.503c0 .277-.22.496-.496.496h-1.92zm0-2.005a.493.493 0 01-.495-.496.5.5 0 01.495-.503h3.125a.499.499 0 110 .999h-3.124zm4.005-13.194a.499.499 0 11-1 0v-3.579c0-.41-.17-.786-.44-1.056a1.524 1.524 0 00-1.062-.439h-4.62l1.268 1.219c.199.191.206.51.014.709a.501.501 0 01-.701.014L21.474 9.48a.502.502 0 01-.007-.772l2.14-2.055a.494.494 0 01.702.014.494.494 0 01-.015.701l-1.268 1.226h4.62c.687 0 1.31.277 1.765.73.453.453.737 1.077.737 1.764v3.579zM4.56 20.266a.5.5 0 01.998 0v3.578a1.5 1.5 0 001.503 1.502h4.613l-1.269-1.218a.503.503 0 01-.014-.709.502.502 0 01.709-.014l2.133 2.054a.498.498 0 010 .773L11.1 28.287a.502.502 0 01-.695-.723l1.269-1.218H7.06a2.49 2.49 0 01-2.502-2.502v-3.578h.001z"/><path d="M18.625 18.92h12.089c.759 0 1.382.623 1.382 1.381v10.317c0 .383-.156.723-.404.978a1.395 1.395 0 01-.978.404H18.625c-.383 0-.723-.156-.978-.404a1.395 1.395 0 01-.403-.978V20.301c0-.758.623-1.381 1.381-1.381zm8.121.998v3.338a.76.76 0 01-.12.418.754.754 0 01-.333.277.764.764 0 01-.815-.128l-.787-.709-.843.73a.755.755 0 01-1.255-.574v-3.351h-3.968a.38.38 0 00-.383.382v10.317c0 .107.043.199.114.27.07.063.163.113.269.113h12.09c.105 0 .198-.05.268-.114a.406.406 0 00.114-.269V20.301a.39.39 0 00-.383-.382h-3.968zm-3.153 0v2.828l.602-.524a.759.759 0 01.503-.192.788.788 0 01.503.198l.546.49v-2.8h-2.154z"/></g><defs><clipPath id="clip0_723_1965"><path fill="#fff" transform="translate(.096)" d="M0 0h32v32H0z"/></clipPath></defs></svg>