<svg width="27" height="32" fill="none" xmlns="http://www.w3.org/2000/svg"><path d="M.559 32h25.074c.256 0 .463-.21.463-.469v-6.913c0-2.293-1.842-4.16-4.107-4.16h-1.81v-5.766h.674c.798 0 1.447-.658 1.447-1.466V10.31a1.47 1.47 0 00-.634-1.212c.052-2.334-.745-4.544-2.262-6.251C17.799 1.042 15.598.032 13.206 0a8.365 8.365 0 00-4.957 1.55.472.472 0 00-.115.653.459.459 0 00.644.117A7.456 7.456 0 0113.192.938c4.251.055 7.532 3.597 7.55 7.906h-.566c.05-1.91-.608-3.713-1.873-5.11C15.506.649 10.718.694 7.934 3.692a7.25 7.25 0 00-1.92 5.153h-.568c.004-1.863.657-3.708 1.828-5.129a.473.473 0 00-.059-.66.459.459 0 00-.651.06C5.2 4.768 4.467 6.934 4.524 9.098a1.471 1.471 0 00-.632 1.21v2.917c0 .644.413 1.192.984 1.388v.904c0 .687.492 1.26 1.138 1.376v.687c0 .258.207.468.462.468.256 0 .463-.21.463-.468v-.665h1a7.2 7.2 0 001.602 1.596V20.4a.06.06 0 01-.06.06H6.94v-.69a.466.466 0 00-.462-.47.466.466 0 00-.463.47v.69h-1.81c-2.265 0-4.108 1.866-4.108 4.16v6.912c0 .259.207.469.463.469zm24.612-7.382v6.445h-3.458v-3.825a.466.466 0 00-.463-.469.466.466 0 00-.463.469v3.825h-4.021l.968-3.656a.462.462 0 10-.894-.243l-1.032 3.899H10.38l-2.56-9.667h.318c1.31 1.527 4.576 5.293 4.61 5.332a.46.46 0 00.696 0c.034-.04 3.3-3.805 4.61-5.332h.314l-.968 3.655a.468.468 0 00.447.59.464.464 0 00.447-.347l1.032-3.898h2.663c1.755 0 3.182 1.446 3.182 3.222zm-5.918-4.16h-2.542a.06.06 0 01-.06-.06v-1.886c1.595-1.176 2.35-2.573 2.522-3.82h.08v5.767zm2.121-7.232a.526.526 0 01-.521.528H19.25l.21-2.892c.369-.161.615-.51.645-.916l.012-.165h.736c.06 0 .117.011.17.03l.017.006a.529.529 0 01.334.493v2.916zm-8.2-10.857c3.581.045 6.328 3.103 6.061 6.771l-.053.737a.142.142 0 01-.091.126.128.128 0 01-.143-.024c-1.039-.93-1.845-2.179-2.395-3.71a.46.46 0 00-.85-.045c-1.045 2.172-3.243 4.767-6.001 4.935a6.774 6.774 0 01-.567.012 2.218 2.218 0 01-1.575-.704.483.483 0 00-.065-.072 2.283 2.283 0 01-.543-1.327c-.258-3.544 2.508-6.746 6.222-6.699zm-8.357 7.94c0-.293.239-.528.522-.528h.802c.12.432.325.825.597 1.16l.204 2.813H5.34a.526.526 0 01-.522-.528V10.31zm.985 5.209v-.826h.212v1.214a.462.462 0 01-.212-.388zm1.137.46v-1.286h.08c.06.436.188.867.377 1.287H6.94zm2.202.938h1.342a1.18 1.18 0 001.17 1.168h1.78a1.18 1.18 0 001.17-1.186v-.902a1.18 1.18 0 00-1.17-1.185h-1.78c-.64 0-1.16.522-1.17 1.168H8.438a3.778 3.778 0 01-.524-1.63l-.19-2.598c.418.218.89.346 1.39.357.205.005.422 0 .644-.013 2.775-.17 5.018-2.408 6.303-4.576.576 1.263 1.339 2.325 2.274 3.162.062.056.13.103.2.142l-.256 3.525c-.117 1.603-1.337 2.768-2.054 3.32-1.176.904-2.446 1.316-3.129 1.316-.682 0-1.953-.412-3.129-1.317a6.753 6.753 0 01-.826-.751zm2.267-.92c0-.136.11-.248.245-.248h1.78c.135 0 .245.112.245.248v.902c0 .137-.11.248-.245.248h-1.78a.246.246 0 01-.245-.248v-.902zm-.942 4.403v-1.293c.92.51 1.877.815 2.63.815.753 0 1.71-.305 2.63-.815V20.4c0 .55.442.997.985.997h.116a2263.023 2263.023 0 01-3.73 4.312c-.755-.87-2.565-2.957-3.732-4.312h.117a.992.992 0 00.984-.997zm-9.445 4.22c0-1.777 1.428-3.223 3.182-3.223h2.659l2.56 9.666H5.405v-3.824a.466.466 0 00-.463-.469.466.466 0 00-.463.469v3.825H1.021v-6.445z" fill="#414141"/></svg>