<svg width="35" height="22" fill="none" xmlns="http://www.w3.org/2000/svg"><path d="M.646 10.625l2.717 1.072c.36.141.75.067 1.03-.168l2.153 1.357.369.26a1.82 1.82 0 001.738 2.777c.029.511.261.966.64 1.287.372.316.857.477 1.374.42.029.512.261.967.64 1.288.375.318.862.476 1.375.42.027.482.243.952.639 1.288a1.822 1.822 0 002.564-.21l.432-.507.727.537c1.258.928 3.037.168 3.2-1.376 1.298.471 2.675-.438 2.695-1.834a1.992 1.992 0 002.376-1.836c1.586.424 3.02-1.179 2.32-2.746l1.944-1.249c.279.33.742.455 1.154.292l2.718-1.072c.523-.207.78-.8.574-1.323l-1.242-3.148a.5.5 0 10-.93.366l1.243 3.148a.02.02 0 01-.012.028l-2.717 1.072a.02.02 0 01-.027-.012l-3.415-8.657a.02.02 0 010-.015c.003-.008.009-.01.011-.012L29.654 1a.02.02 0 01.016 0c.008.004.01.01.01.012l1.317 3.337a.5.5 0 00.93-.366L30.61.646A1.02 1.02 0 0029.287.07L26.57 1.143a1.018 1.018 0 00-.612 1.207l-1.457.537a2.836 2.836 0 01-1.423.14l-1.472-.233a.5.5 0 00-.157.987l1.473.233a3.838 3.838 0 001.925-.19l1.47-.542 2.843 7.205-2.143 1.377-.037-.027-4.131-3.049a.501.501 0 00-.393-.089c-2.07.352-3.923-.384-5.287-1.808a1.129 1.129 0 00-1.576-.054c-1.323 1.189-3.172 2.347-4.466 1.118-.128-.122-.13-.348.066-.474 1.648-1.06 3.355-2.548 4.728-3.938a1.52 1.52 0 011.317-.43l1.895.3a.5.5 0 10.157-.986l-1.896-.3a2.52 2.52 0 00-2.183.714c-.159.16-.347.348-.559.552a7.13 7.13 0 00-1.984-.4c-1.985-.112-2.157-.133-2.608-.104a2.327 2.327 0 01-1.04-.174l-.88-.368a1.02 1.02 0 00-.613-1.204L4.809.071a1.02 1.02 0 00-1.322.575L.072 9.302a1.02 1.02 0 00.574 1.323zm8.435 4.02a.822.822 0 01-1.252-1.06l1.235-1.45a.82.82 0 111.252 1.062L9.08 14.645zm2.014 1.708a.82.82 0 01-1.252-1.06l1.235-1.45a.824.824 0 011.218-.039l.006.007c.282.3.3.772.028 1.093l-1.235 1.45zm2.015 1.708A.82.82 0 0111.857 17l1.235-1.451a.822.822 0 011.252 1.062L13.11 18.06zm3.255.25l-.006.008-1.235 1.45a.822.822 0 01-1.253-1.061l1.235-1.45a.82.82 0 011.26 1.053zM7.78 3.279l.854.358c.468.196.984.282 1.49.25.382-.025.51-.008 2.488.103a6.13 6.13 0 011.2.188c-.978.883-2.075 1.767-3.174 2.473a1.296 1.296 0 00-.199 2.028c.834.793 2.7 1.705 5.821-1.098a.134.134 0 01.187.002c1.512 1.577 3.655 2.459 5.969 2.134.262.184-.246-.188 3.97 2.924.452.333.578.988.225 1.44a.994.994 0 01-1.38.189c-.592-.437-.155-.105-2.236-1.708a.5.5 0 10-.61.791l1.727 1.33c.297.392.262.959-.09 1.31-.347.345-.916.378-1.326.076-.396-.292-.067-.042-1.883-1.44a.5.5 0 00-.61.792l1.532 1.178c.289.374.275.912-.041 1.27-.34.385-.941.438-1.37.122-.69-.509-.343-.246-1.67-1.273a.5.5 0 00-.611.79l1.06.821a.997.997 0 01-.123 1.22c-.346.362-.923.402-1.343.093l-.67-.495.153-.181a1.81 1.81 0 00.426-1.327 1.81 1.81 0 00-.637-1.238 1.808 1.808 0 00-1.375-.421 1.826 1.826 0 00-.639-1.287 1.81 1.81 0 00-1.375-.421l-.002-.048a1.806 1.806 0 00-.43-1.033l-.004-.005a1.82 1.82 0 00-1.577-.621 1.822 1.822 0 00-3.204-1.077l-.753.883-.44-.31a.432.432 0 00-.02-.013L4.871 10.65 7.78 3.28zM1 9.67l3.416-8.657A.02.02 0 014.443 1L7.16 2.072a.02.02 0 01.012.028l-3.415 8.656a.02.02 0 01-.027.012L1.012 9.696a.02.02 0 01-.011-.027z" fill="#414141"/></svg>