<svg width="32" height="30" fill="none" xmlns="http://www.w3.org/2000/svg"><path d="M28.8 25.933L26.968 6.588c-.04-.43-.426-.755-.877-.755h-3.77C22.27 2.607 19.455 0 16 0c-3.455 0-6.27 2.607-6.322 5.834H5.91c-.458 0-.838.326-.877.755L3.2 25.932c0 .025-.007.05-.007.074C3.193 28.21 5.346 30 7.997 30h16.006c2.65 0 4.803-1.791 4.803-3.994 0-.024 0-.049-.006-.073zM16 1.655c2.48 0 4.502 1.865 4.555 4.178h-9.11C11.498 3.521 13.52 1.656 16 1.656zm8.003 26.688H7.997c-1.663 0-3.01-1.031-3.037-2.301L6.714 7.497h2.958v2.515c0 .46.393.829.883.829.491 0 .884-.369.884-.829V7.497h9.116v2.515c0 .46.392.829.883.829.49 0 .883-.369.883-.829V7.497h2.958l1.76 18.546c-.026 1.27-1.38 2.3-3.036 2.3z" fill="#242424"/></svg>