<svg width="68" height="68" fill="none" xmlns="http://www.w3.org/2000/svg"><g clip-path="url(#clip0_66_349)"><path d="M61.766 9.12H6.234A6.24 6.24 0 000 15.353v37.294a6.24 6.24 0 006.234 6.233h55.532A6.24 6.24 0 0068 52.647V15.353a6.24 6.24 0 00-6.234-6.233zm4.109 6.233V25.82h-37.79c1.407-1.077 2.256-2.663 2.256-4.464a5.863 5.863 0 00-5.857-5.857c-1.801 0-3.387.85-4.464 2.257v-6.511h41.746a4.113 4.113 0 014.109 4.108zM8.994 21.356a3.737 3.737 0 013.732-3.732c2.218 0 3.495 2.007 3.741 3.872l.55 4.151-4.152-.549c-1.864-.247-3.871-1.524-3.871-3.742zm11.198 4.29l.55-4.15c.246-1.865 1.523-3.872 3.741-3.872a3.736 3.736 0 013.732 3.732c0 2.218-2.006 3.494-3.871 3.741l-4.152.55zm-13.958-14.4h11.66v7.66c-1.004-2.083-2.92-3.406-5.168-3.406a5.864 5.864 0 00-5.857 5.857c0 1.8.849 3.386 2.256 4.463h-7V15.353a4.113 4.113 0 014.109-4.108zM2.125 52.647V27.945h14.36l-4.316 4.552a1.062 1.062 0 101.541 1.463l4.184-4.413v27.208H6.233a4.113 4.113 0 01-4.108-4.108zm59.641 4.108H20.02V29.576l7.468 7.997a1.064 1.064 0 001.846-.687 1.063 1.063 0 00-.293-.764l-7.638-8.178h44.472v24.703a4.113 4.113 0 01-4.109 4.108zm-2.465-10.247H39.06a1.062 1.062 0 00-1.063 1.062v4.94a1.062 1.062 0 001.062 1.063H59.3a1.063 1.063 0 001.063-1.062v-4.94a1.063 1.063 0 00-1.062-1.063zm-1.063 4.94H40.123v-2.815h18.115v2.815z" fill="#242424"/></g><defs><clipPath id="clip0_66_349"><path fill="#fff" d="M0 0h68v68H0z"/></clipPath></defs></svg>