<svg width="32" height="32" fill="none" xmlns="http://www.w3.org/2000/svg"><path d="M16 30.22c-.456 0-.895-.165-1.237-.465a370.347 370.347 0 00-3.639-3.13l-.005-.005c-3.224-2.747-6.008-5.12-7.945-7.457C1.009 16.55 0 14.073 0 11.367c0-2.63.902-5.055 2.539-6.83C4.195 2.74 6.468 1.75 8.939 1.75c1.848 0 3.54.584 5.028 1.736A10.288 10.288 0 0116 5.608c.6-.83 1.281-1.541 2.033-2.122 1.489-1.152 3.18-1.736 5.028-1.736 2.47 0 4.744.99 6.4 2.786C31.1 6.312 32 8.738 32 11.366c0 2.707-1.008 5.184-3.174 7.797-1.937 2.337-4.72 4.71-7.944 7.457-1.101.938-2.35 2.002-3.645 3.135-.342.3-.782.465-1.237.465zM8.94 3.625c-1.942 0-3.726.774-5.023 2.182C2.6 7.235 1.873 9.21 1.873 11.367c0 2.276.846 4.312 2.743 6.6 1.833 2.212 4.56 4.536 7.717 7.227l.006.005c1.104.94 2.355 2.007 3.657 3.145a434.58 434.58 0 013.67-3.15c3.156-2.691 5.883-5.015 7.716-7.227 1.897-2.288 2.743-4.324 2.743-6.6 0-2.157-.726-4.132-2.043-5.56-1.297-1.408-3.08-2.182-5.022-2.182-1.423 0-2.729.452-3.882 1.343-1.027.795-1.743 1.8-2.163 2.503A1.174 1.174 0 0116 8.05c-.42 0-.8-.216-1.016-.578-.42-.703-1.136-1.708-2.164-2.503-1.152-.891-2.458-1.343-3.88-1.343z" fill="#242424"/></svg>