<svg width="41" height="41" fill="none" xmlns="http://www.w3.org/2000/svg"><g clip-path="url(#clip0_723_1900)" fill="#414141"><path d="M8.696 16.405a12.903 12.903 0 00-5.963 10.928.683.683 0 101.367 0 11.541 11.541 0 015.33-9.776.684.684 0 10-.736-1.152h.002zm7.021-13.672a2.05 2.05 0 100 4.1 2.05 2.05 0 000-4.1zm0 2.734a.683.683 0 110-1.367.683.683 0 010 1.367zm-5.125 23.916a2.392 2.392 0 100 4.784 2.392 2.392 0 000-4.784zm0 3.417a1.025 1.025 0 110-2.05 1.025 1.025 0 010 2.05zM6.15 34.85a.683.683 0 100-1.367.683.683 0 000 1.367zm2.733 2.05a.683.683 0 100-1.367.683.683 0 000 1.367z"/><path d="M33.825 5.467c-2.902 0-5.402 1.405-6.531 3.416h-5.226a3.037 3.037 0 00-1.568-.648V2.733A2.733 2.733 0 0017.767 0h-4.1a2.733 2.733 0 00-2.733 2.733v5.502a3.044 3.044 0 00-2.05 4.947A15.717 15.717 0 006.98 40.398 3.517 3.517 0 008.918 41h13.605a3.273 3.273 0 001.817-.523 15.744 15.744 0 007.086-13.105c0-.013.008-.025.008-.039 0-.013-.007-.02-.007-.032 0-.447-.012-.895-.05-1.345a15.832 15.832 0 00-7.905-12.29h3.822c1.129 2.012 3.63 3.417 6.531 3.417 3.957 0 7.175-2.605 7.175-5.808s-3.218-5.808-7.175-5.808zM12.3 2.733c0-.754.612-1.366 1.367-1.366h4.1c.755 0 1.367.612 1.367 1.366V8.2H12.3V2.733zm-1.025 6.834h8.884a1.7 1.7 0 011.182.478l.011.01a1.701 1.701 0 010 2.438l-.011.01a1.703 1.703 0 01-1.182.478h-8.884a1.708 1.708 0 110-3.417v.003zm12.313 29.77c-.32.2-.689.302-1.065.296H8.918a2.138 2.138 0 01-1.178-.37 14.35 14.35 0 01-5.792-7.906 8.735 8.735 0 004.134-1.75 7.184 7.184 0 014.626-1.59 7.178 7.178 0 014.624 1.588 8.532 8.532 0 005.4 1.828 8.516 8.516 0 005.394-1.827 7.283 7.283 0 013.922-1.56 14.381 14.381 0 01-6.46 11.29zm6.426-13.265c.018.205.023.407.032.61a8.603 8.603 0 00-4.69 1.795 7.175 7.175 0 01-4.623 1.59 7.184 7.184 0 01-4.631-1.591 8.527 8.527 0 00-5.394-1.826 8.528 8.528 0 00-5.398 1.827 7.363 7.363 0 01-3.69 1.538 14.34 14.34 0 018.508-15.892 3.05 3.05 0 001.147.227h8.884c.395 0 .786-.078 1.151-.228a14.45 14.45 0 018.704 11.95zM23.045 12.3a2.88 2.88 0 000-2.05h3.724a4.478 4.478 0 000 2.05h-3.724zm10.78 3.417c-2.539 0-4.698-1.255-5.485-2.995l-.006-.012a3.406 3.406 0 010-2.87l.006-.012c.787-1.74 2.946-2.995 5.485-2.995 3.203 0 5.809 1.993 5.809 4.442 0 2.45-2.606 4.442-5.809 4.442z"/><path d="M33.825 8.2c-2.657 0-4.442 1.59-4.442 3.075a.683.683 0 101.367 0c0-.697 1.198-1.708 3.075-1.708a.683.683 0 100-1.367zM4.855.378a.683.683 0 00.306.92l2.734 1.367a.684.684 0 00.61-1.223L5.772.075a.683.683 0 00-.917.303zm3.04 6.527L5.16 8.272a.684.684 0 00.611 1.223l2.733-1.367a.684.684 0 00-.61-1.223zM4.1 4.783c0 .378.306.684.683.684h2.734a.683.683 0 100-1.367H4.783a.683.683 0 00-.683.683zm21.867 29.384a.683.683 0 00-.957.136 11.628 11.628 0 01-2.697 2.597l-2.496-.004a.683.683 0 100 1.367l2.704.004c.135 0 .267-.04.38-.115a12.984 12.984 0 003.202-3.029.683.683 0 00-.136-.956z"/></g><defs><clipPath id="clip0_723_1900"><path fill="#fff" d="M0 0h41v41H0z"/></clipPath></defs></svg>