<svg width="42" height="42" fill="none" xmlns="http://www.w3.org/2000/svg"><g clip-path="url(#clip0_723_1915)" fill="#414141"><path d="M35.11 21.11a12.539 12.539 0 00.882-7.725 1.392 1.392 0 00-1.078-1.078 12.46 12.46 0 00-8.1 1.063 12.405 12.405 0 00-5.051-6.724 1.4 1.4 0 00-1.526 0 12.402 12.402 0 00-5.047 6.724 12.44 12.44 0 00-8.1-1.063 1.392 1.392 0 00-1.078 1.078 12.54 12.54 0 00.877 7.726 12.632 12.632 0 00-5.845 4.73 1.394 1.394 0 000 1.52A12.207 12.207 0 0011.2 32.9a12.04 12.04 0 002.894-.35 6.326 6.326 0 00-.152 6.893.7.7 0 00.365.266c.465.136.948.202 1.433.197A6.537 6.537 0 0021 37.134a6.54 6.54 0 005.26 2.774 4.89 4.89 0 001.433-.197.7.7 0 00.365-.266 6.325 6.325 0 00-.151-6.892c.947.233 1.918.35 2.893.347a12.207 12.207 0 0010.154-5.537 1.394 1.394 0 000-1.523 12.629 12.629 0 00-5.843-4.73zm-.49-7.438a11.102 11.102 0 01-.853 7A12.022 12.022 0 0030.8 20.3a11.879 11.879 0 00-4.28.78c.521-1.366.786-2.817.78-4.28a12.412 12.412 0 00-.174-2.006 11.028 11.028 0 017.496-1.122h-.001zm-7.526 17.29a5.81 5.81 0 01-.686.18c-.019 0-.037.006-.056.01a4.881 4.881 0 01-4.177-.936 6.249 6.249 0 002.853-4.399c.123-.047.239-.098.37-.14a4.954 4.954 0 015.38 1.155 5.028 5.028 0 01-3.683 4.128l-.002.002zm-11.816.098c-.124-.032-.24-.054-.374-.098a6.139 6.139 0 01-1.543-.74 4.887 4.887 0 01-2.14-3.394 4.98 4.98 0 015.377-1.151c.257.085.507.184.709.266a4.927 4.927 0 012.849 3.253 6.24 6.24 0 00-4.876 1.862l-.002.002zm8.47-6.592c.002.256-.013.512-.045.766a4.955 4.955 0 01-2.165 3.73 6.288 6.288 0 00-3.279-4.103 6.946 6.946 0 01-.01-.393A5.04 5.04 0 0121 19.66a5.04 5.04 0 012.75 4.806l-.002.002zM21 7.818a11.077 11.077 0 014.671 6.717c0 .014.004.028.008.043.15.73.224 1.476.221 2.222a10.32 10.32 0 01-1.23 4.96 6.172 6.172 0 00-3.442-3.522.69.69 0 00-.456 0 6.171 6.171 0 00-3.443 3.524A10.325 10.325 0 0116.1 16.8a10.887 10.887 0 01.23-2.262A11.086 11.086 0 0121 7.818zm-13.624 5.86a10.98 10.98 0 017.5 1.12A12.379 12.379 0 0014.7 16.8a11.863 11.863 0 00.781 4.281A11.865 11.865 0 0011.2 20.3a12.041 12.041 0 00-2.969.368 11.12 11.12 0 01-.857-6.99h.002zm-5.16 12.927a11.044 11.044 0 015.86-4.447A10.464 10.464 0 0111.2 21.7a10.3 10.3 0 015.44 1.5c.1.058.19.123.286.186-.04.301-.063.605-.07.91a6.329 6.329 0 00-6.916 1.88.695.695 0 00-.14.428 6.24 6.24 0 002.779 4.776c.012.008.027.014.038.022-.47.063-.943.096-1.417.098a10.825 10.825 0 01-8.984-4.895zM14.963 38.43a5.067 5.067 0 01.572-5.53c.147-.209.307-.407.479-.596a4.9 4.9 0 013.929-1.727 6.316 6.316 0 00.253 5.259c-.07.115-.135.227-.22.342a4.955 4.955 0 01-5.013 2.252zm12.075 0a4.955 4.955 0 01-5.017-2.255 6.964 6.964 0 01-.412-.642 4.996 4.996 0 01-.414-4.32 6.205 6.205 0 004.005 1.462 7.06 7.06 0 001.016-.087c.084.104.17.2.253.317a5.063 5.063 0 01.569 5.525zM30.8 31.5a10.976 10.976 0 01-1.425-.099 6.226 6.226 0 002.825-4.795.7.7 0 00-.14-.428 6.328 6.328 0 00-6.92-1.884 8.394 8.394 0 00-.07-.91c.097-.064.188-.13.292-.192A10.3 10.3 0 0130.8 21.7c1.06-.006 2.114.149 3.127.46a11.06 11.06 0 015.855 4.44 10.8 10.8 0 01-8.982 4.9zm-28-18.9a.7.7 0 101.4 0v-1.4a.7.7 0 10-1.4 0v1.4zm.7-6.3a.7.7 0 00-.7.7v1.4a.7.7 0 101.4 0V7a.7.7 0 00-.7-.7zm-.7 3.5a.7.7 0 00-.7-.7H.7a.7.7 0 100 1.4h1.4a.7.7 0 00.7-.7zm2.1.7h1.4a.7.7 0 100-1.4H4.9a.7.7 0 100 1.4zm23.655-6.155a.7.7 0 00.99-.99l-1.05-1.05a.7.7 0 00-.99.99l1.05 1.05zm2.1 2.1l1.05 1.05a.7.7 0 00.99-.99l-1.05-1.05a.7.7 0 10-.99.99zm.495-1.895a.7.7 0 00.495-.205l1.05-1.05a.7.7 0 10-.99-.99l-1.05 1.05a.7.7 0 00.495 1.195zm-3.645 2.945a.7.7 0 00.99 0l1.05-1.05a.7.7 0 10-.99-.99l-1.05 1.05a.7.7 0 000 .99zM39.55 5.6a2.45 2.45 0 100 4.9 2.45 2.45 0 000-4.9zm0 3.5a1.05 1.05 0 110-2.1 1.05 1.05 0 010 2.1z"/></g><defs><clipPath id="clip0_723_1915"><path fill="#fff" d="M0 0h42v42H0z"/></clipPath></defs></svg>