<svg width="36" height="36" fill="none" xmlns="http://www.w3.org/2000/svg"><g clip-path="url(#clip0_723_1942)" fill="#414141"><path d="M19.055 9.563C19.055 4.29 14.797 0 9.563 0 4.314 0 0 4.316 0 9.563c0 4.88 3.73 8.91 8.508 9.434v6.386H5.344a1.055 1.055 0 000 2.11h3.164v3.163a1.055 1.055 0 002.11 0v-3.164h3.163a1.055 1.055 0 100-2.11h-3.164v-6.386c4.74-.527 8.438-4.556 8.438-9.433zm-16.946 0c0-4.11 3.344-7.454 7.454-7.454 4.07 0 7.382 3.344 7.382 7.454 0 4.07-3.312 7.382-7.383 7.382-4.11 0-7.453-3.312-7.453-7.383zm25.383 7.44V7.89l2.418 2.418a1.055 1.055 0 101.492-1.491l-4.219-4.22a1.055 1.055 0 00-1.491 0l-4.219 4.22a1.055 1.055 0 101.492 1.491l2.418-2.418v9.114c-4.74.527-8.438 4.556-8.438 9.433 0 5.273 4.258 9.563 9.492 9.563C31.686 36 36 31.684 36 26.437c0-4.88-3.73-8.91-8.508-9.434zm-1.055 16.888c-4.07 0-7.382-3.344-7.382-7.453 0-4.071 3.312-7.383 7.383-7.383 4.11 0 7.453 3.312 7.453 7.383 0 4.11-3.344 7.453-7.453 7.453z"/></g><defs><clipPath id="clip0_723_1942"><path fill="#fff" d="M0 0h36v36H0z"/></clipPath></defs></svg>