<svg width="43" height="43" fill="none" xmlns="http://www.w3.org/2000/svg"><g clip-path="url(#clip0_723_1928)" fill="#000"><path d="M21.5 43c8.308-.01 15.04-6.742 15.05-15.05 0-11.276-12.547-25.84-13.975-27.464a1.472 1.472 0 00-2.144 0C18.997 2.109 6.45 16.674 6.45 27.95 6.46 36.258 13.192 42.99 21.5 43zm0-41.567c.553.631 13.617 15.582 13.617 26.517 0 7.52-6.097 13.617-13.617 13.617-7.52 0-13.617-6.097-13.617-13.617 0-10.935 13.065-25.886 13.617-26.517z"/><path d="M14.644 29.413a6.512 6.512 0 00-.37 7.387.71.71 0 00.373.273c.477.14.971.207 1.468.202a6.691 6.691 0 005.385-2.84 6.696 6.696 0 005.386 2.84 5.01 5.01 0 001.467-.202.712.712 0 00.373-.273 6.509 6.509 0 00-.37-7.387 6.559 6.559 0 004.61-5.756.716.716 0 00-.143-.44 6.475 6.475 0 00-7.085-1.928 6.477 6.477 0 00-4.006-6.2.706.706 0 00-.468 0 6.476 6.476 0 00-4.006 6.2 6.476 6.476 0 00-7.081 1.931.717.717 0 00-.144.439 6.56 6.56 0 004.611 5.754zm.675 6.35a5.188 5.188 0 01.585-5.662 6.01 6.01 0 01.491-.61 5.017 5.017 0 014.023-1.769 6.463 6.463 0 00.26 5.384c-.076.117-.148.244-.225.35a5.075 5.075 0 01-5.134 2.306zm12.362 0a5.075 5.075 0 01-5.136-2.31 7.36 7.36 0 01-.422-.657 5.113 5.113 0 01-.423-4.423 6.352 6.352 0 004.1 1.496 7.144 7.144 0 001.04-.089c.087.107.173.205.26.325a5.184 5.184 0 01.581 5.657zm3.83-11.88a5.177 5.177 0 01-3.77 4.229c-.23.076-.465.137-.703.184-.018 0-.038.006-.056.01a5.004 5.004 0 01-4.277-.958 6.4 6.4 0 002.92-4.503c.127-.05.245-.102.379-.144a5.071 5.071 0 015.506 1.182zM21.5 16.545a5.16 5.16 0 012.815 4.922 6.2 6.2 0 01-.045.784 5.075 5.075 0 01-2.217 3.817 6.416 6.416 0 00-3.357-4.197 7.254 7.254 0 01-.011-.404 5.16 5.16 0 012.815-4.922zm-4.503 6.158c.26.085.508.185.724.278a5.098 5.098 0 012.909 3.322 6.387 6.387 0 00-4.987 1.91c-.127-.033-.251-.057-.382-.1a5.15 5.15 0 01-3.773-4.228 5.069 5.069 0 015.509-1.182zM6.45 10.033c.396 0 .717-.32.717-.716V7.883a.717.717 0 10-1.434 0v1.434c0 .395.321.716.717.716zm.717 2.15a.717.717 0 00-1.434 0v1.434a.717.717 0 001.434 0v-1.434zm-3.584-.716h1.434a.717.717 0 000-1.434H3.583a.717.717 0 000 1.434zm4.3 0h1.434a.717.717 0 000-1.434H7.883a.717.717 0 000 1.434zm31.892 26.158a.72.72 0 00.507-.21l1.075-1.075a.717.717 0 00-1.014-1.013l-1.075 1.075a.717.717 0 00.507 1.223zm-2.657.927l-1.075 1.075a.717.717 0 101.014 1.013l1.075-1.075a.717.717 0 00-1.014-1.013zm-1.075-3.225a.717.717 0 000 1.013l1.075 1.075a.717.717 0 001.014-1.013l-1.075-1.075a.717.717 0 00-1.014 0zm4.3 5.313a.717.717 0 001.014-1.013l-1.075-1.075a.717.717 0 00-1.014 1.013l1.075 1.075zM3.942 20.783a2.508 2.508 0 100-5.016 2.508 2.508 0 000 5.016zm0-3.583a1.075 1.075 0 110 2.15 1.075 1.075 0 010-2.15z"/></g><defs><clipPath id="clip0_723_1928"><path fill="#fff" d="M0 0h43v43H0z"/></clipPath></defs></svg>