<svg width="32" height="43" fill="none" xmlns="http://www.w3.org/2000/svg"><path d="M28.19 15.134h-6.857v-1.238h2.286c.42 0 .762-.277.762-.62V4.61c0-.514.28-1.007.789-1.388.497-.374.764-.903.732-1.454C25.845.777 24.823 0 23.576 0H8.424C7.177 0 6.155.777 6.098 1.768c-.032.55.235 1.08.732 1.453.509.382.79.875.79 1.389v8.667c0 .342.34.619.761.619h2.286v1.238H3.81c-2.101 0-3.81 1.388-3.81 3.095v20.936c0 1.707 1.709 3.095 3.81 3.095h24.38c2.101 0 3.81-1.388 3.81-3.095V18.23c0-1.707-1.709-3.095-3.81-3.095zM9.143 12.658V4.61c0-.85-.466-1.688-1.279-2.298a.568.568 0 01-.244-.486c.019-.324.38-.588.804-.588h15.152c.424 0 .785.264.804.588a.568.568 0 01-.244.486c-.813.61-1.279 1.448-1.279 2.298v8.048h-1.524V4.61c0-.342-.34-.619-.762-.619H11.43c-.421 0-.762.277-.762.62v8.047H9.143zm10.666 0H12.19V5.229h7.62v7.429zm-7.619 1.238h7.62v1.238h-7.62v-1.238zm18.286 25.27c0 1.023-1.025 1.856-2.285 1.856H3.81c-1.26 0-2.286-.833-2.286-1.857V18.23c0-1.024 1.025-1.857 2.286-1.857h24.38c1.26 0 2.286.833 2.286 1.857v20.936z" fill="#414141"/><path d="M16 10.181c1.26 0 2.286-.833 2.286-1.857S17.261 6.467 16 6.467c-1.26 0-2.285.833-2.285 1.857S14.74 10.181 16 10.181zm0-2.476c.42 0 .762.278.762.62 0 .34-.341.618-.762.618-.42 0-.762-.277-.762-.619 0-.341.342-.619.762-.619zm12.19 9.905H3.81c-.421 0-.762.277-.762.62v6.19c0 .342.34.619.762.619.42 0 .761-.277.761-.62v-5.57H27.43v15.505c0 .618-.359 1.174-.984 1.526a2.701 2.701 0 01-2.105.213l-4.862-1.482a12.058 12.058 0 00-6.956 0L7.66 36.093c-.713.217-1.48.14-2.105-.213-.625-.352-.984-.908-.984-1.526v-7.458c0-.342-.34-.62-.761-.62s-.762.278-.762.62v7.458c0 1.015.613 1.966 1.64 2.544 1.026.578 2.337.71 3.507.354l4.862-1.482a10.2 10.2 0 015.886 0l4.862 1.482c.434.132.887.197 1.337.197.766 0 1.525-.187 2.17-.551 1.027-.578 1.64-1.53 1.64-2.544V18.229c0-.342-.34-.619-.762-.619z" fill="#414141"/></svg>