<svg width="51" height="52" fill="none" xmlns="http://www.w3.org/2000/svg"><g clip-path="url(#clip0_68_370)" fill="#242424"><path d="M31.268 20.805l-7.663 7.253-3.677-3.791a1.058 1.058 0 00-1.498-.022 1.064 1.064 0 00-.022 1.502l4.41 4.537a1.08 1.08 0 001.5.032l8.428-7.966a1.063 1.063 0 00.042-1.502 1.083 1.083 0 00-1.52-.043z"/><path d="M25.582 9.644c-8.757 0-15.878 7.136-15.878 15.911 0 8.776 7.12 15.912 15.878 15.912s15.88-7.136 15.88-15.912c0-8.775-7.122-15.911-15.88-15.911zm0 29.693c-7.588 0-13.753-6.188-13.753-13.782 0-7.593 6.165-13.78 13.753-13.78 7.596 0 13.754 6.17 13.754 13.78 0 7.612-6.158 13.782-13.754 13.782z"/><path d="M47.434 19.698l.351-6.316a1.063 1.063 0 00-.585-1.012l-5.61-2.843-2.84-5.624a1.078 1.078 0 00-1.01-.585l-6.313.34-5.26-3.481a1.06 1.06 0 00-1.17 0l-5.26 3.483-6.303-.352a1.058 1.058 0 00-1.01.586L9.588 9.516 3.975 12.36a1.08 1.08 0 00-.584 1.012l.35 6.315L.266 24.96a1.066 1.066 0 000 1.172l3.465 5.282-.351 6.316c-.025.424.205.822.584 1.012l5.612 2.843 2.838 5.624c.193.377.587.605 1.01.585l6.302-.351 5.261 3.482c.353.242.817.242 1.17 0l5.26-3.482 6.303.351a1.06 1.06 0 001.01-.585l2.837-5.624 5.612-2.843a1.08 1.08 0 00.585-1.012l-.351-6.316 3.475-5.272a1.066 1.066 0 000-1.171l-3.454-5.272zM45.457 30.54c-.13.19-.19.42-.17.65l.33 5.974-5.304 2.684a1.05 1.05 0 00-.467.469l-2.679 5.314-5.962-.33a1.16 1.16 0 00-.649.17l-4.974 3.292-4.974-3.291a1.05 1.05 0 00-.584-.181h-.053l-5.963.33-2.678-5.315a1.048 1.048 0 00-.468-.468l-5.314-2.674.33-5.974a1.166 1.166 0 00-.17-.65l-3.285-4.985 3.284-4.984c.13-.19.19-.42.17-.65l-.33-5.974 5.305-2.684a1.05 1.05 0 00.467-.469l2.678-5.314 5.963.33c.228.008.453-.051.648-.17l4.974-3.291 4.974 3.29c.19.13.42.19.649.17l5.962-.33 2.679 5.315c.101.203.265.367.467.469l5.304 2.684-.33 5.975c-.008.228.051.454.17.649l3.285 4.984-3.285 4.985z"/></g><defs><clipPath id="clip0_68_370"><path fill="#fff" d="M0 0h51v51.105H0z"/></clipPath></defs></svg>