<svg width="40" height="40" fill="none" xmlns="http://www.w3.org/2000/svg"><g clip-path="url(#clip0_907_182)" fill="#fff"><path d="M18.182 15.454v1.819h-1.819V20h1.819v8.182h3.636V20h2.418l.31-2.727h-2.728v-1.591c0-.737.073-1.127 1.21-1.127h1.517v-2.737H22.11c-2.91 0-3.927 1.364-3.927 3.636z"/><path d="M20 0C8.954 0 0 8.954 0 20s8.954 20 20 20 20-8.954 20-20S31.046 0 20 0zm0 38.182C9.958 38.182 1.818 30.042 1.818 20 1.818 9.958 9.958 1.818 20 1.818c10.042 0 18.182 8.14 18.182 18.182 0 10.042-8.14 18.182-18.182 18.182z"/></g><defs><clipPath id="clip0_907_182"><path fill="#fff" d="M0 0h40v40H0z"/></clipPath></defs></svg>