<svg width="17" height="17" fill="none" xmlns="http://www.w3.org/2000/svg"><g clip-path="url(#clip0_50_18)"><path d="M16.792 15.79l-4.834-4.833a6.696 6.696 0 001.5-4.228C13.458 3.02 10.44 0 6.73 0A6.737 6.737 0 000 6.73c0 3.71 3.019 6.728 6.73 6.728 1.6 0 3.07-.563 4.226-1.5l4.835 4.834a.706.706 0 001.001 0 .707.707 0 000-1.001zM6.73 12.043A5.318 5.318 0 011.418 6.73 5.318 5.318 0 016.73 1.418a5.318 5.318 0 015.313 5.312 5.318 5.318 0 01-5.313 5.313z" fill="#5F5F5F"/></g><defs><clipPath id="clip0_50_18"><path fill="#fff" d="M0 0h17v17H0z"/></clipPath></defs></svg>