<svg width="40" height="40" fill="none" xmlns="http://www.w3.org/2000/svg"><g clip-path="url(#clip0_907_196)" fill="#fff"><path d="M19.2 16.3h.373a1.5 1.5 0 001.5-1.49v-2.428a1.5 1.5 0 00-1.491-1.473h-.373a1.5 1.5 0 00-1.5 1.491v2.427a1.5 1.5 0 001.49 1.473zm-.373-4.009a.564.564 0 011.127 0v2.61a.564.564 0 01-1.127 0v-2.61zm-4.054 3.918h1.318v-2.9l1.5-4.109h-1.227l-.91 2.727-.909-2.727h-1.354l1.6 4.109-.018 2.9zm8.182.091a2.336 2.336 0 001.409-.654v.563h1.09v-5.3h-1.09v4.11s-.373.436-.728.436c-.354 0-.372-.282-.372-.282v-4.264h-1.155v4.664a.855.855 0 00.846.727zm-.745 6.09a.782.782 0 00-.565.283v3.763c.144.16.35.249.564.246.564 0 .564-.627.564-.627v-3.037s-.1-.627-.564-.627z"/><path d="M20 0C8.954 0 0 8.954 0 20s8.954 20 20 20 20-8.954 20-20S31.046 0 20 0zm0 38.182C9.958 38.182 1.818 30.042 1.818 20 1.818 9.958 9.958 1.818 20 1.818c10.042 0 18.182 8.14 18.182 18.182 0 10.042-8.14 18.182-18.182 18.182z"/><path d="M26.527 22.39c-.563 0-.563.628-.563.628v.81h1.127v-.81s0-.627-.564-.627z"/><path d="M26.947 17.462l-.047.002h-.018s-3.428-.191-6.882-.191c-3.455 0-6.9.181-6.9.181a2.727 2.727 0 00-2.818 2.728A25.037 25.037 0 0010 23.636a25.19 25.19 0 00.282 3.491 2.727 2.727 0 002.818 2.728s3.39.181 6.9.181c3.51 0 6.9-.181 6.9-.181a2.727 2.727 0 002.818-2.728c.174-1.155.268-2.322.282-3.49a24.79 24.79 0 00-.282-3.492 2.727 2.727 0 00-2.77-2.683zM15.918 20.51h-1.373v7.073h-1.354V20.51h-1.373v-1.164h4.127l-.027 1.164zm3.573 7.073h-1.136v-.537a2.38 2.38 0 01-1.41.628.836.836 0 01-.845-.718V21.4h1.173v5.19s0 .274.372.274c.373 0 .755-.446.755-.446V21.4h1.127l-.036 6.182zm3.373.09a1.51 1.51 0 01-1.219-.6v.51h-1.227v-8.237h1.218v2.673a1.818 1.818 0 011.219-.609c.754 0 1.036.627 1.036 1.436l.009 3.391s0 1.437-1.036 1.437zm5.445-2.927h-2.346v1.346s0 .627.564.627.564-.627.564-.627v-.637h1.218v.982a1.582 1.582 0 01-1.69 1.255 1.727 1.727 0 01-1.82-1.255v-3.509a1.582 1.582 0 011.82-1.518 1.482 1.482 0 011.69 1.518v1.818z"/></g><defs><clipPath id="clip0_907_196"><path fill="#fff" d="M0 0h40v40H0z"/></clipPath></defs></svg>