<svg width="39" height="40" fill="none" xmlns="http://www.w3.org/2000/svg"><path d="M38 20c0 10.517-8.306 19-18.5 19S1 30.517 1 20 9.306 1 19.5 1 38 9.483 38 20z" stroke="#fff" stroke-width="2"/><path d="M26.991 15.56A4.6 4.6 0 0122.386 11h-2.973v8.125l-.004 4.45a2.691 2.691 0 01-2.848 2.687 2.68 2.68 0 01-1.231-.378 2.691 2.691 0 01-1.316-2.268 2.694 2.694 0 013.546-2.594v-3.019a5.848 5.848 0 00-.857-.064 5.701 5.701 0 00-4.285 1.916 5.578 5.578 0 00-1.407 3.365 5.571 5.571 0 001.66 4.34 5.702 5.702 0 004.032 1.65 5.683 5.683 0 004.032-1.65 5.567 5.567 0 001.67-3.961l-.015-6.646A7.518 7.518 0 0027 18.52v-2.96h-.009z" fill="#fff"/></svg>