<svg width="39" height="40" fill="none" xmlns="http://www.w3.org/2000/svg"><path d="M38 20c0 10.517-8.306 19-18.5 19S1 30.517 1 20 9.306 1 19.5 1 38 9.483 38 20z" stroke="#fff" stroke-width="2"/><g clip-path="url(#clip0_907_188)"><path d="M19.177 29h-.18a62.579 62.579 0 01-3.982-.11c-1.162-.07-2.223-.472-3.068-1.161-.815-.665-1.372-1.564-1.655-2.672-.246-.965-.26-1.912-.272-2.828-.009-.657-.018-1.436-.02-2.227.002-.796.011-1.574.02-2.231.013-.916.026-1.863.272-2.828.283-1.108.84-2.007 1.655-2.672.845-.689 1.906-1.09 3.069-1.161A62.766 62.766 0 0119 11a63.015 63.015 0 013.983.11c1.162.07 2.223.472 3.068 1.161.816.665 1.373 1.564 1.655 2.672.246.965.26 1.912.272 2.828.009.657.018 1.435.02 2.227v.004c-.002.791-.011 1.57-.02 2.227-.012.916-.025 1.863-.272 2.828-.282 1.108-.84 2.007-1.655 2.672-.845.689-1.906 1.09-3.068 1.161a62.16 62.16 0 01-3.807.11zm-.18-1.407a61.348 61.348 0 003.901-.107c.88-.053 1.641-.338 2.266-.847.577-.47.974-1.12 1.18-1.93.206-.803.217-1.665.229-2.499.009-.653.018-1.426.02-2.21-.002-.784-.011-1.557-.02-2.21-.012-.834-.023-1.696-.228-2.5-.207-.809-.604-1.458-1.181-1.929-.625-.509-1.387-.794-2.266-.848a61.454 61.454 0 00-3.897-.107 61.263 61.263 0 00-3.9.107c-.879.054-1.641.34-2.265.848-.577.47-.975 1.12-1.181 1.93-.205.803-.217 1.665-.229 2.499-.008.653-.018 1.427-.02 2.212.002.781.011 1.555.02 2.208.012.834.024 1.696.229 2.499.206.81.604 1.46 1.18 1.93.625.509 1.387.794 2.266.847 1.238.076 2.513.11 3.897.107zm-.033-3.198A4.4 4.4 0 0114.57 20a4.4 4.4 0 014.394-4.395A4.4 4.4 0 0123.36 20a4.4 4.4 0 01-4.395 4.395zm0-7.383A2.992 2.992 0 0015.976 20a2.992 2.992 0 002.988 2.988A2.992 2.992 0 0021.953 20a2.992 2.992 0 00-2.989-2.988zm4.887-2.813a1.055 1.055 0 100 2.11 1.055 1.055 0 000-2.11z" fill="#fff"/></g><defs><clipPath id="clip0_907_188"><path fill="#fff" transform="translate(10 11)" d="M0 0h18v18H0z"/></clipPath></defs></svg>