<svg width="73" height="73" fill="none" xmlns="http://www.w3.org/2000/svg"><g clip-path="url(#clip0_68_351)"><path d="M70.522 33.721l-4.97-2.151-4.222-8.214a6.647 6.647 0 00-5.981-3.635h-7.27v-2.053c0-3.716-2.966-6.748-6.682-6.748H6.65C2.934 10.92 0 13.968 0 17.668v31.455a4.097 4.097 0 004.042 4.156h.929c0 .163-.016.228-.016.326-.016 4.661 3.749 8.459 8.41 8.475 4.661.016 8.458-3.749 8.475-8.41v-.081c0-.114 0-.163-.017-.326h28.082v.326c-.016 4.66 3.748 8.458 8.41 8.475 4.661.016 8.458-3.749 8.475-8.41v-.408h2.102A4.11 4.11 0 0073 49.14V37.502c.033-1.597-.945-3.112-2.477-3.78zM13.414 58.837a5.175 5.175 0 01-5.183-5.183 5.175 5.175 0 015.183-5.183 5.175 5.175 0 015.182 5.183 5.196 5.196 0 01-5.182 5.183zm31.406-8.785H21.058a8.374 8.374 0 00-7.644-4.873 8.33 8.33 0 00-7.644 4.873H4.108c-.506 0-.848-.391-.848-.896v-8.394h41.56v9.29zm0-32.368v19.818H3.26V17.684c0-1.907 1.483-3.488 3.39-3.488h34.747a3.453 3.453 0 013.423 3.472v.016zm3.26 5.313h7.269a3.44 3.44 0 013.096 1.842l3.26 6.307H48.08v-8.149zm10.284 35.84a5.175 5.175 0 01-5.183-5.183 5.175 5.175 0 015.183-5.183 5.175 5.175 0 015.182 5.183 5.185 5.185 0 01-5.182 5.183zm11.392-9.681c0 .505-.342.896-.847.896h-2.902a8.436 8.436 0 00-11.213-4.075 8.394 8.394 0 00-4.074 4.075h-2.64V34.406h15.972l5.182 2.282a.959.959 0 01.522.88v11.588z" fill="#242424"/></g><defs><clipPath id="clip0_68_351"><path fill="#fff" d="M0 0h73v73H0z"/></clipPath></defs></svg>