<svg width="14" height="14" fill="none" xmlns="http://www.w3.org/2000/svg"><g clip-path="url(#clip0_156_374)" fill="#969B9F"><path d="M.42 6.15a.414.414 0 00-.415.415v6.083c0 .229.186.414.414.414h2.496V6.151H.419zm13.575 2.288c0-.526-.283-.987-.704-1.24a1.445 1.445 0 00-1.188-2.264H9.056c.093-.422.22-1.057.31-1.722.231-1.73.073-2.69-.498-3.02-.356-.206-.74-.248-1.081-.118-.264.1-.62.347-.822.953l-.801 2.097c-.406 1.003-1.65 2.056-2.421 2.638v7.483c1.43.501 2.921.755 4.443.755h3.32a1.445 1.445 0 001.227-2.204 1.446 1.446 0 00.558-2.119c.421-.252.704-.713.704-1.24z"/></g><defs><clipPath id="clip0_156_374"><path fill="#fff" d="M0 0h14v14H0z"/></clipPath></defs></svg>